<svg width="1066" height="1590" viewBox="0 0 1066 1590" fill="none" xmlns="http://www.w3.org/2000/svg">
<path d="M833.407 113.415L820.883 122.973C819.047 124.374 816.415 123.911 814.981 122.101C796.696 99.0082 767.498 104.209 756.993 128.56C748.494 155.56 759.993 180.56 759.993 180.56C770.851 202.768 788.527 200.134 799.081 197.658C799.358 197.592 799.628 197.497 799.883 197.369C811.993 191.288 811.993 178.56 811.993 178.56V173.06C811.993 170.851 810.203 169.06 807.993 169.06H792.993C790.784 169.06 788.993 167.269 788.993 165.06V150.56C788.993 148.351 790.784 146.56 792.993 146.56H832.493C834.703 146.56 836.493 148.35 836.493 150.559V178.56C836.493 182.539 837.483 200.371 820.269 214.338C820.089 214.484 819.89 214.617 819.686 214.727C798.769 226.05 775.901 225.064 756.994 214.56C720.994 194.56 729.757 130.403 733.494 121.06C738.494 108.559 756.494 81.56 787.994 83.06C810.533 84.1333 826.486 98.6196 834.135 107.987C835.502 109.662 835.126 112.103 833.407 113.415Z" stroke="#EA3CE8" stroke-width="9"/>
<path d="M616.494 219.56H601.494C599.285 219.56 597.494 217.769 597.494 215.56V89.5601C597.494 87.3509 599.285 85.5601 601.494 85.5601H618.237C619.638 85.5601 620.936 86.2925 621.661 87.491L668.07 164.278C670.165 167.744 675.494 166.259 675.494 162.209V89.5601C675.494 87.3509 677.285 85.5601 679.494 85.5601H696.994C699.203 85.5601 700.994 87.3509 700.994 89.5601V215.56C700.994 217.769 699.203 219.56 696.994 219.56H677.711C676.331 219.56 675.05 218.85 674.319 217.68L627.886 143.387C625.756 139.979 620.494 141.488 620.494 145.507V215.56C620.494 217.769 618.703 219.56 616.494 219.56Z" stroke="#EA3CE8" stroke-width="9"/>
<path d="M753.5 1021H804.5" stroke="#EB20A7" stroke-width="20" stroke-linecap="round"/>
<path d="M656.5 1021H707.5" stroke="#EB20A7" stroke-width="20" stroke-linecap="round"/>
<path d="M555.5 1021H606.5" stroke="#EB20A7" stroke-width="20" stroke-linecap="round"/>
<path d="M461.5 1021H512.5" stroke="#EB20A7" stroke-width="20" stroke-linecap="round"/>
<path d="M524.5 1067H575.5" stroke="#EB20A7" stroke-width="20" stroke-linecap="round"/>
<path d="M624.5 1067H675.5" stroke="#EB20A7" stroke-width="20" stroke-linecap="round"/>
<path d="M727.5 1067H778.5" stroke="#EB20A7" stroke-width="20" stroke-linecap="round"/>
<path d="M6.5 294.827V1446.5V1487.15C6.5 1487.96 6.99727 1488.7 7.75587 1489L240.756 1582.4C242.07 1582.93 243.5 1581.96 243.5 1580.54V1254.24C243.5 1253.76 243.672 1253.3 243.985 1252.94L283.515 1207.06C283.828 1206.7 284 1206.24 284 1205.76V1110.74C284 1110.26 283.828 1109.8 283.516 1109.44L154.436 959.506C154.153 959.178 153.985 958.766 153.956 958.333L117.044 400.16C117.015 399.731 117.126 399.305 117.358 398.944L199.181 271.995C199.389 271.672 199.5 271.296 199.5 270.911V14.303C199.5 12.3515 196.991 11.5554 195.866 13.1499L14.1839 270.611C9.18412 277.696 6.5 286.155 6.5 294.827Z" stroke="#EB20A7" stroke-width="13"/>
<path d="M933 6.5H231C228.239 6.5 226 8.73857 226 11.5V275.032C226 275.99 225.725 276.929 225.206 277.735L142.394 406.608C141.814 407.512 141.539 408.579 141.612 409.65L178.385 950.307C178.46 951.405 178.894 952.447 179.621 953.273L310.252 1101.58C311.056 1102.5 311.5 1103.67 311.5 1104.89V1213.05C311.5 1214.3 311.027 1215.51 310.174 1216.44L270.826 1259.06C269.973 1259.99 269.5 1261.2 269.5 1262.45V1569.5C269.5 1572.26 271.739 1574.5 274.5 1574.5H985.5C988.261 1574.5 990.5 1572.26 990.5 1569.5V1262.5C990.5 1261.21 990.992 1259.98 991.873 1259.05L1018.1 1231.42C1018.37 1231.14 1018.66 1230.89 1018.99 1230.68L1056.74 1205.98C1058.15 1205.06 1059 1203.48 1059 1201.8V1105.15C1059 1103.78 1058.43 1102.47 1057.44 1101.52L900.899 953.325C899.999 952.472 899.447 951.315 899.352 950.079L857.625 409.614C857.544 408.565 857.796 407.517 858.345 406.619L937.264 277.702C937.745 276.916 938 276.012 938 275.091V11.5C938 8.73858 935.761 6.5 933 6.5Z" stroke="#04D4F3" stroke-width="13"/>
<path d="M780.748 455.5H228.678C211.653 455.5 198.291 470.096 199.79 487.054L235.161 887.054C236.485 902.022 249.022 913.5 264.049 913.5H813.063C830 913.5 843.332 899.047 841.969 882.165L809.654 482.165C808.437 467.103 795.859 455.5 780.748 455.5Z" stroke="#04D4F3" stroke-width="14" stroke-linecap="round"/>
<path d="M336.5 1110H1034.5" stroke="#2C0B94" stroke-width="14" stroke-linecap="round"/>
<path d="M334.5 1211.5H1022" stroke="#2C0B94" stroke-width="14" stroke-linecap="round"/>
<path d="M326 1236H975" stroke="#2C0B94" stroke-width="14" stroke-linecap="round"/>
<path d="M176.5 404.5H834.5" stroke="#2C0B94" stroke-width="13" stroke-linecap="round"/>
<path d="M231.5 962H889.5" stroke="#2C0B94" stroke-width="13" stroke-linecap="round"/>
<path d="M238.5 303H898" stroke="#2C0B94" stroke-width="13" stroke-linecap="round"/>
<path d="M877.5 274H290.5C274.484 274 261.5 261.016 261.5 245V63C261.5 46.9837 274.484 34 290.5 34H877.5C893.516 34 906.5 46.9837 906.5 63V245C906.5 261.016 893.516 274 877.5 274Z" stroke="#2C0B94" stroke-width="13"/>
<ellipse cx="896" cy="1024.5" rx="37.5" ry="16.5" fill="#EB20A7"/>
<ellipse cx="363" cy="1024.5" rx="37.5" ry="16.5" fill="#EB20A7"/>
<path d="M895.5 1021V972" stroke="#59088E" stroke-width="16" stroke-linecap="round"/>
<path d="M362.5 1021V972" stroke="#59088E" stroke-width="16" stroke-linecap="round"/>
<path d="M896 906C913.024 906 926.5 919.385 926.5 935.5C926.5 951.615 913.024 965 896 965C878.976 965 865.5 951.615 865.5 935.5C865.5 919.385 878.976 906 896 906Z" fill="#EB20A7" stroke="#59088E" stroke-width="14"/>
<path d="M363 906C380.024 906 393.5 919.385 393.5 935.5C393.5 951.615 380.024 965 363 965C345.976 965 332.5 951.615 332.5 935.5C332.5 919.385 345.976 906 363 906Z" fill="#EB20A7" stroke="#59088E" stroke-width="14"/>
<mask id="path-26-inside-1_2130_2" fill="white">
<rect x="600.5" y="1327" width="306" height="181" rx="11"/>
</mask>
<rect x="600.5" y="1327" width="306" height="181" rx="11" stroke="#2C0B94" stroke-width="28" mask="url(#path-26-inside-1_2130_2)"/>
<mask id="path-27-inside-2_2130_2" fill="white">
<rect x="804.5" y="1384" width="65" height="54" rx="11"/>
</mask>
<rect x="804.5" y="1384" width="65" height="54" rx="11" stroke="#2C0B94" stroke-width="28" mask="url(#path-27-inside-2_2130_2)"/>
<path d="M341.5 220.559V87.5596C341.5 85.3504 343.289 83.5596 345.499 83.5596L384.567 83.5596C390.168 83.5596 395.833 84.0272 400.994 86.2042C437.48 101.596 448.939 154.983 402.102 174.43C396.217 176.873 389.763 177.56 383.391 177.56H369C366.791 177.56 365 179.35 365 181.56V220.559C365 222.769 363.209 224.559 361 224.559H345.5C343.291 224.559 341.5 222.769 341.5 220.559Z" stroke="#EA3CE8" stroke-width="9"/>
<path d="M365.5 150V112C365.5 109.791 367.294 108 369.503 108H393.084C393.352 108 393.637 108.028 393.899 108.086C420.388 113.907 409.91 154 393.494 154H369.5C367.291 154 365.5 152.209 365.5 150Z" stroke="#EA3CE8" stroke-width="9"/>
<ellipse cx="511.494" cy="153.56" rx="58.5" ry="70.5" stroke="#EA3CE8" stroke-width="9"/>
<ellipse cx="511.994" cy="153.56" rx="32" ry="45.5" stroke="#EA3CE8" stroke-width="9"/>
</svg>
