<svg id="Layer_1" viewBox="0 0 24 24" xmlns="http://www.w3.org/2000/svg" data-name="Layer 1"><circle cx="12" cy="12" r="1.25"/><circle cx="8" cy="12" r="1.25"/><circle cx="16" cy="12" r="1.25"/><path d="m20.77 16.95c-.09-.26-.08-.54.02-.75.86-1.8 1.15-3.81.82-5.81-.66-4.07-3.96-7.36-8.02-8.01-3.17-.5-6.26.5-8.5 2.74-2.24 2.25-3.22 5.35-2.71 8.51.65 3.98 3.87 7.25 7.84 7.96.6.11 1.2.16 1.79.16 1.74 0 3.42-.46 4.94-1.36.18-.11.46-.22.78-.17l2.32.39c.44.07.87-.08 1.16-.42s.38-.79.24-1.21zm-1.33-1.4s0 0 0 0c-.27.57-.31 1.24-.09 1.88l.54 1.63-1.91-.32c-.59-.1-1.23.03-1.79.36-1.73 1.02-3.7 1.37-5.71 1.02-3.35-.6-6.08-3.36-6.62-6.72-.44-2.68.4-5.31 2.29-7.21 1.57-1.58 3.65-2.43 5.84-2.43.45 0 .91.04 1.36.11 3.43.54 6.22 3.33 6.78 6.77.28 1.69.04 3.4-.69 4.92z"/></svg>