<svg height="512" viewBox="0 0 32 32" width="512" xmlns="http://www.w3.org/2000/svg"><g id="Layer_2" data-name="Layer 2"><path d="m28.841 19.676-2.169-9.761a4.968 4.968 0 0 0 -4.88-3.915h-11.584a4.968 4.968 0 0 0 -4.88 3.915l-2.169 9.761a5.2 5.2 0 0 0 9.85 3.174l1.123-2.619a2.034 2.034 0 0 1 3.737 0l1.122 2.62a5.2 5.2 0 0 0 9.85-3.175zm-2.579 3.124a3.2 3.2 0 0 1 -5.433-.741l-1.122-2.619a4.033 4.033 0 0 0 -7.414 0l-1.122 2.618a3.2 3.2 0 0 1 -6.06-1.953l2.169-9.76a2.982 2.982 0 0 1 2.928-2.345h11.584a2.982 2.982 0 0 1 2.928 2.349l2.169 9.76a3.185 3.185 0 0 1 -.627 2.691z"/><path d="m14 12h-1v-1a1 1 0 0 0 -2 0v1h-1a1 1 0 0 0 0 2h1v1a1 1 0 0 0 2 0v-1h1a1 1 0 0 0 0-2z"/><path d="m20 10a3 3 0 1 0 3 3 3 3 0 0 0 -3-3zm0 4a1 1 0 1 1 1-1 1 1 0 0 1 -1 1z"/></g></svg>