<svg id="Layer_2" viewBox="0 0 32 32" xmlns="http://www.w3.org/2000/svg" data-name="Layer 2"><path d="m28 16h-2v-1c0-1.65-1.35-3-3-3h-6v-3.18c1.16-.41 2-1.51 2-2.82 0-1.65-1.35-3-3-3s-3 1.35-3 3c0 1.3.84 2.4 2 2.82v3.18h-6c-1.65 0-3 1.35-3 3v1h-2c-1.1 0-2 .9-2 2v5c0 1.1.9 2 2 2h2v1c0 1.65 1.35 3 3 3h14c1.65 0 3-1.35 3-3v-1h2c1.1 0 2-.9 2-2v-5c0-1.1-.9-2-2-2zm-12-11c.55 0 1 .45 1 1s-.45 1-1 1-1-.45-1-1 .45-1 1-1zm-12 18v-5h2v5zm20 3c0 .55-.45 1-1 1h-14c-.55 0-1-.45-1-1v-11c0-.55.45-1 1-1h14c.55 0 1 .45 1 1zm2-3v-5h2v5s-2 0-2 0zm-14-3.5c-.83 0-1.5-.67-1.5-1.5s.67-1.5 1.5-1.5 1.5.67 1.5 1.5-.67 1.5-1.5 1.5zm7.8 2.9c.33.44.24 1.07-.2 1.4-1.39 1.04-2.85 1.2-3.6 1.2-1.74 0-3-.75-3.6-1.2-.44-.33-.53-.96-.2-1.4s.96-.53 1.4-.2c.4.3 1.24.8 2.4.8.5 0 1.47-.1 2.4-.8.44-.33 1.07-.24 1.4.2zm1.7-4.4c0 .83-.67 1.5-1.5 1.5s-1.5-.67-1.5-1.5.67-1.5 1.5-1.5 1.5.67 1.5 1.5z"/></svg>