<svg id="Layer_1" viewBox="0 0 24 24" xmlns="http://www.w3.org/2000/svg" data-name="Layer 1"><path d="m12 11.75c2.62 0 4.75-2.13 4.75-4.75s-2.13-4.75-4.75-4.75-4.75 2.13-4.75 4.75 2.13 4.75 4.75 4.75zm0-8c1.79 0 3.25 1.46 3.25 3.25s-1.46 3.25-3.25 3.25-3.25-1.46-3.25-3.25 1.46-3.25 3.25-3.25z"/><path d="m15 13.25h-6c-3.17 0-5.75 2.58-5.75 5.75 0 1.52 1.23 2.75 2.75 2.75h12c1.52 0 2.75-1.23 2.75-2.75 0-3.17-2.58-5.75-5.75-5.75zm3 7h-12c-.69 0-1.25-.56-1.25-1.25 0-2.34 1.91-4.25 4.25-4.25h6c2.34 0 4.25 1.91 4.25 4.25 0 .69-.56 1.25-1.25 1.25z"/></svg>